<svg width="21" height="18" viewBox="0 0 21 18" fill="none" xmlns="http://www.w3.org/2000/svg">
<path d="M18.6141 4.92662C18.6268 5.10428 18.6268 5.28197 18.6268 5.45963C18.6268 10.8784 14.5025 17.1221 6.9644 17.1221C4.64205 17.1221 2.48471 16.4494 0.669983 15.282C0.999944 15.32 1.31717 15.3327 1.65983 15.3327C3.57604 15.3327 5.34002 14.6855 6.74865 13.5815C4.94662 13.5434 3.43647 12.3632 2.91615 10.7388C3.16998 10.7769 3.42377 10.8022 3.6903 10.8022C4.0583 10.8022 4.42635 10.7515 4.76897 10.6627C2.8908 10.2819 1.48213 8.63221 1.48213 6.63982V6.58908C2.0278 6.89365 2.66237 7.084 3.3349 7.10935C2.23084 6.3733 1.50752 5.11697 1.50752 3.69564C1.50752 2.93424 1.71053 2.23627 2.06588 1.62713C4.08365 4.11443 7.11666 5.73877 10.5176 5.91646C10.4542 5.61189 10.4161 5.29467 10.4161 4.9774C10.4161 2.7185 12.2435 0.878418 14.5151 0.878418C15.6953 0.878418 16.7613 1.37334 17.51 2.17283C18.4364 1.99518 19.3247 1.65252 20.1115 1.18299C19.8069 2.13479 19.1597 2.93428 18.3095 3.44186C19.1344 3.35307 19.9339 3.12459 20.6699 2.80736C20.1116 3.61951 19.4136 4.34283 18.6141 4.92662Z" fill="white"/>
</svg>
