<svg width="21" height="20" viewBox="0 0 21 20" fill="none" xmlns="http://www.w3.org/2000/svg">
<path d="M19.7553 5.41971C19.5372 4.59853 18.8946 3.95179 18.0787 3.73232C16.5999 3.3335 10.67 3.3335 10.67 3.3335C10.67 3.3335 4.74017 3.3335 3.26132 3.73232C2.44545 3.95183 1.80288 4.59853 1.58479 5.41971C1.18854 6.90815 1.18854 10.0136 1.18854 10.0136C1.18854 10.0136 1.18854 13.1191 1.58479 14.6076C1.80288 15.4287 2.44545 16.0485 3.26132 16.268C4.74017 16.6668 10.67 16.6668 10.67 16.6668C10.67 16.6668 16.5999 16.6668 18.0787 16.268C18.8946 16.0485 19.5372 15.4287 19.7553 14.6076C20.1515 13.1191 20.1515 10.0136 20.1515 10.0136C20.1515 10.0136 20.1515 6.90815 19.7553 5.41971ZM8.73062 12.8332V7.19409L13.6868 10.0137L8.73062 12.8332Z" fill="white"/>
</svg>
